<svg width="40" height="40" viewBox="0 0 40 40" fill="none" xmlns="http://www.w3.org/2000/svg">
<path d="M24.4769 19.1875L10.6406 16.75V34.7612C10.6405 34.957 10.6789 35.1509 10.7539 35.3317C10.8288 35.5126 10.9386 35.6769 11.0772 35.8152C11.2157 35.9535 11.3802 36.0631 11.5612 36.1377C11.7422 36.2123 11.9361 36.2505 12.1319 36.25H36.0069C36.2028 36.2508 36.397 36.2129 36.5783 36.1385C36.7596 36.064 36.9244 35.9544 37.0632 35.8161C37.202 35.6778 37.3121 35.5133 37.3872 35.3323C37.4622 35.1513 37.5008 34.9572 37.5006 34.7612V28.125L24.4769 19.1875Z" fill="#185C37"/>
<path d="M24.4769 3.75H12.1319C11.9361 3.74951 11.7422 3.78766 11.5612 3.86227C11.3802 3.93689 11.2157 4.04649 11.0772 4.1848C10.9386 4.32311 10.8288 4.4874 10.7539 4.66826C10.6789 4.84912 10.6405 5.04299 10.6406 5.23875V11.875L24.4769 20L31.8031 22.4375L37.5006 20V11.875L24.4769 3.75Z" fill="#21A366"/>
<path d="M10.6406 11.875H24.4769V20H10.6406V11.875Z" fill="#107C41"/>
<path opacity="0.1" d="M20.5431 10.25H10.6406V30.5625H20.5431C20.9377 30.5605 21.3156 30.4032 21.595 30.1245C21.8744 29.8458 22.0327 29.4683 22.0356 29.0738V11.7387C22.0327 11.3442 21.8744 10.9667 21.595 10.688C21.3156 10.4093 20.9377 10.252 20.5431 10.25Z" fill="black"/>
<path opacity="0.2" d="M19.7294 11.0625H10.6406V31.375H19.7294C20.124 31.373 20.5019 31.2157 20.7812 30.937C21.0606 30.6583 21.2189 30.2808 21.2219 29.8862V12.5512C21.2189 12.1567 21.0606 11.7792 20.7812 11.5005C20.5019 11.2218 20.124 11.0645 19.7294 11.0625Z" fill="black"/>
<path opacity="0.2" d="M19.7294 11.0625H10.6406V29.75H19.7294C20.124 29.748 20.5019 29.5907 20.7812 29.312C21.0606 29.0333 21.2189 28.6558 21.2219 28.2612V12.5512C21.2189 12.1567 21.0606 11.7792 20.7812 11.5005C20.5019 11.2218 20.124 11.0645 19.7294 11.0625Z" fill="black"/>
<path opacity="0.2" d="M18.9156 11.0625H10.6406V29.75H18.9156C19.3102 29.748 19.6881 29.5907 19.9675 29.312C20.2469 29.0333 20.4052 28.6558 20.4081 28.2612V12.5512C20.4052 12.1567 20.2469 11.7792 19.9675 11.5005C19.6881 11.2218 19.3102 11.0645 18.9156 11.0625Z" fill="black"/>
<path d="M3.9925 11.0625H18.915C19.3103 11.0622 19.6895 11.2188 19.9694 11.498C20.2493 11.7771 20.4068 12.156 20.4075 12.5513V27.4488C20.4068 27.844 20.2493 28.2229 19.9694 28.5021C19.6895 28.7812 19.3103 28.9378 18.915 28.9375H3.9925C3.79663 28.9382 3.60257 28.9001 3.42143 28.8256C3.2403 28.7511 3.07568 28.6415 2.937 28.5032C2.79833 28.3648 2.68834 28.2005 2.61335 28.0195C2.53835 27.8386 2.49983 27.6446 2.5 27.4488V12.5513C2.49983 12.3554 2.53835 12.1614 2.61335 11.9805C2.68834 11.7995 2.79833 11.6352 2.937 11.4969C3.07568 11.3585 3.2403 11.249 3.42143 11.1744C3.60257 11.0999 3.79663 11.0618 3.9925 11.0625Z" fill="url(#paint0_linear_225_3490)"/>
<path d="M7.125 24.8427L10.2638 19.9877L7.38875 15.1602H9.6975L11.2662 18.2514C11.4112 18.5439 11.5163 18.7614 11.5638 18.9064H11.585C11.6875 18.6722 11.7958 18.4447 11.91 18.2239L13.5875 15.1652H15.7125L12.7638 19.9652L15.7875 24.8464H13.5263L11.7138 21.4577C11.6298 21.3118 11.5583 21.1592 11.5 21.0014H11.47C11.417 21.1552 11.3466 21.3024 11.26 21.4402L9.39375 24.8427H7.125Z" fill="white"/>
<path d="M36.0078 3.75001H24.4766V11.875H37.5003V5.23876C37.5005 5.04289 37.462 4.84892 37.387 4.66798C37.312 4.48703 37.202 4.32268 37.0633 4.18436C36.9246 4.04603 36.76 3.93646 36.5789 3.86192C36.3977 3.78738 36.2037 3.74935 36.0078 3.75001Z" fill="#33C481"/>
<path d="M24.4766 20H37.5003V28.125H24.4766V20Z" fill="#107C41"/>
<defs>
<linearGradient id="paint0_linear_225_3490" x1="5.6175" y1="9.89251" x2="17.29" y2="30.1075" gradientUnits="userSpaceOnUse">
<stop stop-color="#18884F"/>
<stop offset="0.5" stop-color="#117E43"/>
<stop offset="1" stop-color="#0B6631"/>
</linearGradient>
</defs>
</svg>
