<svg width="22" height="22" viewBox="0 0 22 22" fill="none" xmlns="http://www.w3.org/2000/svg">
<path d="M11 14V1M11 1L14 4.5M11 1L8 4.5" stroke="#242424" stroke-width="1.5" stroke-linecap="round" stroke-linejoin="round"/>
<path d="M7 21H15C17.828 21 19.243 21 20.121 20.122C21 19.242 21 17.829 21 15V14C21 11.172 21 9.758 20.121 8.879C19.353 8.111 18.175 8.014 16 8.002M6 8.002C3.825 8.014 2.647 8.111 1.879 8.879C1 9.758 1 11.172 1 14V15C1 17.829 1 19.243 1.879 20.122C2.179 20.422 2.541 20.619 3 20.749" stroke="#242424" stroke-width="1.5" stroke-linecap="round"/>
</svg>
