<svg width="24" height="24" viewBox="0 0 24 24" fill="none" xmlns="http://www.w3.org/2000/svg">
<path d="M18 8C18 6.4087 17.3679 4.88258 16.2426 3.75736C15.1174 2.63214 13.5913 2 12 2C10.4087 2 8.88258 2.63214 7.75736 3.75736C6.63214 4.88258 6 6.4087 6 8C6 15 3 17 3 17H21C21 17 18 15 18 8Z" stroke="#242424" stroke-width="1.5" stroke-linecap="round" stroke-linejoin="round"/>
<path d="M13.7334 21C13.5576 21.3031 13.3053 21.5547 13.0017 21.7295C12.698 21.9044 12.3538 21.9965 12.0034 21.9965C11.6531 21.9965 11.3088 21.9044 11.0052 21.7295C10.7016 21.5547 10.4492 21.3031 10.2734 21" stroke="#242424" stroke-width="1.5" stroke-linecap="round" stroke-linejoin="round"/>
</svg>
