<svg width="24" height="24" viewBox="0 0 24 24" fill="none" xmlns="http://www.w3.org/2000/svg">
<path fill-rule="evenodd" clip-rule="evenodd" d="M17.707 14.293L12.707 9.293L12 8.586L11.293 9.293L6.293 14.293L7.707 15.707L11 12.414L11 20L6 20C5.46957 20 4.96086 19.7893 4.58579 19.4142C4.21071 19.0391 4 18.5304 4 18L4 6C4 5.46957 4.21072 4.96086 4.58579 4.58579C4.96086 4.21071 5.46957 4 6 4L18 4C18.5304 4 19.0391 4.21071 19.4142 4.58579C19.7893 4.96086 20 5.46957 20 6L20 18C20 18.5304 19.7893 19.0391 19.4142 19.4142C19.0391 19.7893 18.5304 20 18 20L13 20L13 12.414L16.293 15.707L17.707 14.293Z" fill="#242424"/>
</svg>
