<svg width="24" height="25" viewBox="0 0 24 25" fill="none" xmlns="http://www.w3.org/2000/svg">
<path d="M9.505 21.5H4.5C4.10218 21.5 3.72064 21.342 3.43934 21.0607C3.15804 20.7794 3 20.3978 3 20V5C3 4.60218 3.15804 4.22064 3.43934 3.93934C3.72064 3.65804 4.10218 3.5 4.5 3.5H19.5C19.8978 3.5 20.2794 3.65804 20.5607 3.93934C20.842 4.22064 21 4.60218 21 5V10.015M14.5185 21.5H20.5C20.6326 21.5 20.7598 21.4473 20.8536 21.3536C20.9473 21.2598 21 21.1326 21 21V15.0175H9" stroke="black" stroke-width="2" stroke-linecap="round" stroke-linejoin="round"/>
<path d="M11.5 12L8.5 15L11.5 18" stroke="black" stroke-width="2" stroke-linecap="round" stroke-linejoin="round"/>
</svg>
