<svg width="20" height="21" viewBox="0 0 20 21" fill="none" xmlns="http://www.w3.org/2000/svg">
<path d="M4 12.5H7.05L12.05 7.5C12.2 7.35 12.3127 7.179 12.388 6.987C12.4633 6.795 12.5007 6.60767 12.5 6.425C12.4993 6.24233 12.4577 6.06333 12.375 5.888C12.2923 5.71267 12.184 5.55 12.05 5.4L11.15 4.45C11 4.3 10.8333 4.18767 10.65 4.113C10.4667 4.03833 10.275 4.00067 10.075 4C9.89167 4 9.70433 4.03767 9.513 4.113C9.32167 4.18833 9.15067 4.30067 9 4.45L4 9.45V12.5ZM5.5 11V10.05L8.025 7.525L8.525 7.975L8.975 8.475L6.45 11H5.5ZM8.525 7.975L8.975 8.475L8.025 7.525L8.525 7.975ZM9.175 12.5H16V10.5H11.175L9.175 12.5ZM0 20.5V2.5C0 1.95 0.196 1.47933 0.588 1.088C0.98 0.696667 1.45067 0.500667 2 0.5H18C18.55 0.5 19.021 0.696 19.413 1.088C19.805 1.48 20.0007 1.95067 20 2.5V14.5C20 15.05 19.8043 15.521 19.413 15.913C19.0217 16.305 18.5507 16.5007 18 16.5H4L0 20.5ZM3.15 14.5H18V2.5H2V15.625L3.15 14.5Z" fill="black"/>
</svg>
